<?xml version="1.0" encoding="utf-8"?><svg viewBox="0 0 165 50" xmlns="http://www.w3.org/2000/svg" xmlns:xlink="http://www.w3.org/1999/xlink"><style>:root>svg{display:none}:root>svg:target{display:block}</style><svg viewBox="0 0 32 14" id="arrow-right" xmlns="http://www.w3.org/2000/svg"><path d="M23.429 0c0 3.5 5.714 5.25 5.714 7s-5.714 2.917-5.714 7m5.714-7H1.714"/></svg><svg viewBox="0 0 50 50" id="envelope-regular" xmlns="http://www.w3.org/2000/svg"><path d="M6.25 10.938c-.86 0-1.563.703-1.563 1.562v2.156l16.844 13.828a5.455 5.455 0 0 0 6.946 0l16.835-13.828V12.5c0-.86-.703-1.563-1.562-1.563zm-1.563 9.785V37.5c0 .86.704 1.563 1.563 1.563h37.5c.86 0 1.563-.704 1.563-1.563V20.723L31.444 32.109a10.152 10.152 0 0 1-12.89 0zM0 12.5a6.258 6.258 0 0 1 6.25-6.25h37.5A6.258 6.258 0 0 1 50 12.5v25a6.258 6.258 0 0 1-6.25 6.25H6.25A6.258 6.258 0 0 1 0 37.5zm0 0"/></svg><svg viewBox="0 0 48 49" id="github" xmlns="http://www.w3.org/2000/svg"><path d="M16.055 38.031c0 .192-.223.344-.504.344-.32.031-.543-.121-.543-.344 0-.191.222-.343.504-.343.293-.028.543.124.543.343zm-3.008-.43c-.07.192.125.41.414.47.254.097.543 0 .601-.192.06-.191-.128-.41-.417-.496-.25-.067-.532.027-.598.219zm4.277-.163c-.281.07-.476.25-.445.468.027.192.277.317.57.25.281-.066.473-.25.446-.441-.032-.18-.293-.305-.57-.278zM23.691.766C10.27.766 0 10.844 0 24.117c0 10.613 6.754 19.695 16.402 22.89 1.239.223 1.676-.534 1.676-1.155 0-.594-.031-3.868-.031-5.875 0 0-6.774 1.433-8.195-2.852 0 0-1.102-2.785-2.692-3.504 0 0-2.215-1.504.156-1.473 0 0 2.41.192 3.735 2.47 2.12 3.69 5.672 2.628 7.054 2 .223-1.532.852-2.595 1.551-3.227-5.41-.594-10.87-1.368-10.87-10.575 0-2.632.737-3.953 2.284-5.636-.25-.625-1.074-3.188.254-6.5 2.02-.621 6.676 2.586 6.676 2.586a22.837 22.837 0 0 1 6.078-.817c2.063 0 4.14.278 6.078.817 0 0 4.653-3.22 6.676-2.586 1.324 3.32.504 5.875.25 6.5 1.55 1.691 2.5 3.011 2.5 5.636 0 9.235-5.703 9.973-11.11 10.575.887.757 1.645 2.191 1.645 4.441 0 3.223-.031 7.215-.031 8 0 .621.445 1.379 1.676 1.16C41.437 43.812 48 34.73 48 24.117 48 10.844 37.113.766 23.691.766zM9.406 33.773c-.125.098-.097.317.067.497.156.156.379.222.504.097.125-.097.097-.316-.067-.496-.156-.156-.379-.223-.504-.098zM8.36 33c-.066.121.032.277.223.371.156.098.352.066.418-.066.066-.125-.027-.278-.223-.375-.195-.055-.347-.028-.418.07zm3.137 3.406c-.152.125-.098.41.125.594.223.219.504.246.629.094.129-.125.07-.41-.125-.594-.21-.219-.504-.246-.629-.094zM10.395 35c-.157.094-.157.344 0 .563.152.222.414.316.539.222.156-.125.156-.375 0-.594-.133-.222-.387-.316-.54-.191zm0 0"/></svg><svg viewBox="0 0 44 50" id="linkedin-in" xmlns="http://www.w3.org/2000/svg"><path d="M9.852 43.75H.727V14.54h9.125zM5.285 10.555C2.367 10.555 0 8.156 0 5.254S2.367 0 5.285 0s5.281 2.352 5.281 5.254c0 2.902-2.367 5.3-5.28 5.3zM43.988 43.75h-9.101V29.531c0-3.39-.07-7.734-4.746-7.734-4.743 0-5.47 3.68-5.47 7.488V43.75H15.56V14.54h8.75v3.983h.128c1.215-2.293 4.192-4.714 8.633-4.714 9.23 0 10.93 6.043 10.93 13.894V43.75zm0 0"/></svg><svg viewBox="0 0 165 40" id="logo" xmlns="http://www.w3.org/2000/svg"><path d="M.77 33.2v-1.87l1.65-.66V20.33l-1.65-.66V17.8l5.676-.11 3.3 7.326L13.2 17.8l5.28-.11v1.98l-1.584.66v10.34l1.65.66v1.87H11.99v-1.87l1.716-.66v-8.272l-.594 1.452-2.486 5.17-2.376.11-2.53-5.214-.374-1.144v7.898l1.694.66v1.87H.77zm26.785-12.1c3.564 0 5.544 2.156 5.544 5.94 0 3.96-2.31 6.38-5.874 6.38-3.586 0-5.61-1.87-5.61-6.05 0-3.96 2.354-6.27 5.94-6.27zm-.11 2.64c-1.606 0-2.42.88-2.42 3.52 0 2.42.704 3.52 2.31 3.52 1.584 0 2.354-.99 2.354-3.63 0-2.244-.66-3.41-2.244-3.41zm13.475 7.15 1.98.55v1.76h-7.062v-1.76l1.76-.55V18.526l-1.76-.44v-1.76l5.082-.176v14.74zm15.126-2.904h-7.304c.132 1.76 1.144 2.794 2.662 2.794 1.826 0 3.696-1.034 3.696-1.034l.946 1.826s-2.2 1.848-5.016 1.848c-3.784 0-5.72-2.2-5.72-5.94 0-3.85 2.178-6.38 5.874-6.38 3.278 0 4.994 2.024 4.994 5.17 0 .836-.132 1.65-.132 1.716zm-7.26-2.046h3.982c0-1.254-.528-2.2-1.804-2.2-1.232 0-2.002.902-2.178 2.2zm22.165-2.75-1.364.286-2.53 3.784L69.543 31l1.628.44v1.76h-5.984v-1.76l.682-.242-1.166-1.936-2.376 3.938h-3.74v-1.76l1.65-.44 2.42-3.63-2.662-3.894-1.188-.286v-1.76l5.698-.11v1.87l-.66.132 1.144 1.936 2.288-3.828 3.674-.11v1.87zM81.082 33.2l-.396-1.43s-1.694 1.65-3.564 1.65c-2.134 0-3.432-1.254-3.432-3.454 0-2.596 1.958-3.63 5.302-3.63h1.54v-1.21c0-1.122-.594-1.606-1.694-1.606-1.122 0-1.936.33-1.936.33l-.33 1.386h-1.98l-.154-3.256s2.662-.88 4.774-.88c3.344 0 4.62 1.166 4.62 4.356v5.434l1.65.396v1.76zm-.55-4.994h-1.254c-1.716 0-2.398.44-2.398 1.43 0 .836.462 1.32 1.298 1.32 1.166 0 2.354-1.276 2.354-1.276v-1.474zm12.463-6.886.154 1.518s2.09-1.694 4.048-1.694c2.134 0 3.344 1.518 3.344 3.916v5.83l1.54.55v1.76h-6.05v-1.76l1.21-.55v-5.236c0-1.012-.572-1.76-1.496-1.76-1.364 0-2.354 1.254-2.354 1.254v5.742l1.21.55v1.76h-6.27v-1.76l1.76-.55v-7.15l-1.76-.55v-1.76zm30.177 4.196c0 3.36-1.148 5.88-3.052 7.504-1.736 1.456-4.172 2.1-6.944 2.1h-5.348c-.56 0-.812-.14-.812-.784V16.584c0-.588.168-.84.868-.84h4.032c3.22 0 5.404.364 7.252 1.428 2.52 1.456 4.004 4.2 4.004 8.344zm-3.864-.028c0-2.548-.756-4.48-2.184-5.544-1.148-.84-2.632-1.148-4.424-1.148h-2.044v13.3h2.156c1.932 0 3.556-.308 4.732-1.484 1.12-1.12 1.764-2.8 1.764-5.124zm20.594 8.96c0 .448-.196.672-.672.672h-10.388c-.56 0-.756-.14-.756-.756v-17.92c0-.448.196-.7.644-.7h10.556c.448 0 .588.168.588.476v.168l-.196 1.68c-.056.504-.364.588-.952.588h-7.028v5.068h6.468c.532 0 .7.224.7.616v1.596c0 .476-.196.672-.672.672h-6.496v5.6h7.504c.476 0 .7.196.7.644v1.596zm20.65-18.284c0 .084-.028.168-.056.28l-6.58 18.06c-.14.392-.448.616-.868.616h-1.876c-.532 0-.784-.224-.952-.7l-6.888-17.892a.746.746 0 0 1-.084-.336c0-.28.224-.448.56-.448h2.464c.588 0 .868.196 1.008.588l4.956 13.832h.084l4.676-13.748c.168-.504.42-.672 1.064-.672h1.96c.364 0 .532.168.532.42z"/></svg></svg>